<svg width="179" height="90" viewBox="0 0 179 90" fill="transparent" xmlns="http://www.w3.org/2000/svg">
<path d="M84.9899 86.9425C52.2906 85.5239 22.0994 69.1389 3.08657 42.5786C22.0149 17.67 51.5241 3 82.877 3H86.2602H90.7149C123.386 3 154.667 17.7117 175.795 42.5951L175.561 42.8982C155.116 69.3622 124.064 85.4908 90.6588 87H86.3144L84.9899 86.9425Z" stroke="black" stroke-width="5"/>
<path d="M125 45.5C125 65.0697 108.919 81 89 81C69.0811 81 53 65.0697 53 45.5C53 25.9303 69.0811 10 89 10C108.919 10 125 25.9303 125 45.5Z" stroke="black" stroke-width="6"/>
</svg>
